<?xml version="1.0" standalone="no"?>
<!DOCTYPE svg PUBLIC "-//W3C//DTD SVG 20010904//EN"
 "http://www.w3.org/TR/2001/REC-SVG-20010904/DTD/svg10.dtd">
<svg version="1.0" xmlns="http://www.w3.org/2000/svg"
 width="1572.000000pt" height="3408.000000pt" viewBox="0 0 1572.000000 3408.000000"
 preserveAspectRatio="xMidYMid meet">

<g transform="translate(0.000000,3408.000000) scale(0.100000,-0.100000)"
fill="#000000" stroke="none">
<path d="M7609 18737 c-108 -40 -168 -144 -148 -252 12 -66 50 -117 110 -150
44 -24 59 -27 119 -23 54 3 75 9 109 33 98 67 126 193 66 291 -55 88 -169 133
-256 101z"/>
<path d="M2790 17885 l0 -845 190 0 190 0 2 635 3 635 322 -633 322 -632 266
-3 265 -2 0 845 0 845 -195 0 -195 0 0 -626 c1 -345 -1 -628 -2 -629 -2 -2
-148 279 -325 624 l-321 626 -261 3 -261 2 0 -845z"/>
<path d="M5860 18305 l0 -215 -285 0 -285 0 0 -275 c0 -288 -7 -353 -43 -406
-34 -50 -68 -70 -130 -76 -108 -11 -172 24 -215 116 -14 31 -17 81 -20 339
l-3 302 -196 0 -196 0 6 -317 c6 -349 11 -386 70 -498 90 -169 279 -265 522
-265 297 0 503 139 570 386 11 37 19 120 22 219 l6 160 87 -3 88 -3 4 -247 c5
-285 13 -322 84 -401 92 -102 260 -137 447 -92 48 11 101 28 117 36 29 15 30
15 30 -5 0 -19 6 -20 194 -20 l195 0 3 298 3 297 30 54 c16 29 43 63 60 76 80
59 191 60 277 1 l35 -23 69 141 69 141 3 -492 2 -493 195 0 195 0 0 525 0 525
-194 0 c-142 0 -195 -3 -198 -12 -3 -8 -20 -5 -59 12 -46 21 -69 25 -159 25
-99 0 -110 -2 -172 -33 -43 -21 -83 -51 -112 -83 l-46 -51 0 71 0 71 -195 0
-195 0 0 -477 0 -477 -55 113 c-46 93 -59 112 -73 106 -64 -27 -73 -29 -99
-19 -53 18 -63 58 -63 256 l0 177 118 3 117 3 3 158 3 157 -121 0 -120 0 0
215 0 215 -195 0 -195 0 0 -215z"/>
</g>
</svg>
